<svg xmlns="http://www.w3.org/2000/svg" viewBox="0 0 150 150" xmlns:v="https://vecta.io/nano"><path d="M95.52 20.36a52.42 52.42 0 1 0 0 74.13 52.29 52.29 0 0 0 0-74.13zm-25.43 67.8a32.9 32.9 0 1 1 19.09-42.44 0 0 0 0 1 0 0 32.88 32.88 0 0 1-19.09 42.44z" fill="#fff" stroke="#040506" stroke-linejoin="round" stroke-width="2.06"/><path d="M142.38 129.36a9.32 9.32 0 0 1 1.14 1.4 10 10 0 0 0-1.14-1.4zm1.62 2.16a7.79 7.79 0 0 1 .65 1.6 9.1 9.1 0 0 0-.65-1.6z" fill="#ffd200"/><g fill="#fff" stroke="#040506" stroke-linejoin="round" stroke-width="2.06"><path d="M145 135.66a8.25 8.25 0 0 1 0 .86 7.72 7.72 0 0 1-.12.84 3.88 3.88 0 0 1-.15.61 1.05 1.05 0 0 1-.06.24.56.56 0 0 1 0 .12 4.6 4.6 0 0 1-.24.68h0a5.79 5.79 0 0 1-.31.67c0 .08-.08.15-.12.24a5.58 5.58 0 0 1-.32.52.7.7 0 0 1-.1.16 5.64 5.64 0 0 1-.46.63.28.28 0 0 1-.06.08 4.15 4.15 0 0 1-.45.49l-.14.16a8.93 8.93 0 0 1-12.59 0l-40.83-40.75 12.59-12.59 40.74 40.74a10 10 0 0 1 1.14 1.4l.45.76a9.1 9.1 0 0 1 .65 1.6 8.59 8.59 0 0 1 .21.84c0 .28.09.56.12.85a8.19 8.19 0 0 1 .05.85z"/><path d="M142.38,142l.14-.16a1.58,1.58,0,0,1-.12.15Z"/></g></svg>